[in#0/caf @ 0x77ac8c000] Estimating duration from bitrate, this may be inaccurate
[aist#0:0/pcm_f32le @ 0x77ac84180] Guessed Channel Layout: stereo
Input #0, caf, from '<campaign-scratch>/captures/raw/italy_qreg_chatgpt_voice_full_narration_take3_paced.caf':
  Duration: 00:01:08.76, start: 0.000000, bitrate: 3072 kb/s
  Stream #0:0: Audio: pcm_f32le (lpcm / 0x6D63706C), 48000 Hz, stereo, flt, 3072 kb/s
Stream mapping:
  Stream #0:0 -> #0:0 (pcm_f32le (native) -> pcm_s16le (native))
Press [q] to stop, [?] for help
Output #0, wav, to '<campaign-scratch>/captures/edited/italy_qreg_chatgpt_voice_take3_paced_continuous.wav':
  Metadata:
    ISFT            : Lavf62.12.102
  Stream #0:0: Audio: pcm_s16le ([1][0][0][0] / 0x0001), 48000 Hz, mono, s16, 768 kb/s
    Metadata:
      encoder         : Lavc62.28.102 pcm_s16le
[Parsed_loudnorm_3 @ 0x77ac90b40] 
Input Integrated:    -39.8 LUFS
Input True Peak:     -17.8 dBTP
Input LRA:             3.0 LU
Input Threshold:     -50.1 LUFS

Output Integrated:   -16.7 LUFS
Output True Peak:     -1.5 dBTP
Output LRA:            2.0 LU
Output Threshold:    -26.9 LUFS

Normalization Type:   Dynamic
Target Offset:        +0.7 LU
[out#0/wav @ 0x77ac90180] video:0KiB audio:2463KiB subtitle:0KiB other streams:0KiB global headers:0KiB muxing overhead: 0.003093%
size=    2463KiB time=00:00:26.30 bitrate= 767.1kbits/s speed=53.1x elapsed=0:00:00.49    
